<?xml version="1.0"?>
<svg xmlns="http://www.w3.org/2000/svg" xmlns:xlink="http://www.w3.org/1999/xlink" xmlns:svgjs="http://svgjs.com/svgjs" version="1.1" width="512" height="512" x="0" y="0" viewBox="0 0 64 64" style="enable-background:new 0 0 512 512" xml:space="preserve" class=""><g>

<path xmlns="http://www.w3.org/2000/svg" style="" d="M62,48V10H2v38c0,1.654,1.346,3,3,3h5v1h2v-4c0-0.552,0.448-1,1-1h5c0.552,0,1,0.448,1,1v3h4  c0.552,0,1,0.448,1,1h2v-1h3v1h2v-7c0-2.757,2.243-5,5-5h8v-3H31.106c-2.425,4.177-6.937,7-12.106,7c-7.72,0-14-6.28-14-14  s6.28-14,14-14c0.552,0,1,0.448,1,1v12h12c0.552,0,1,0.448,1,1c0,1.763-0.341,3.445-0.939,5H45c0.552,0,1,0.448,1,1v4h6  c2.757,0,5,2.243,5,5v7h2v-1C60.654,51,62,49.654,62,48z M44,12h16v2H44V12z M44,16h16v2H44V16z M42,14h-4.586l-3.394,3.394  C35.88,19.771,37,22.755,37,26c0,0.552-0.448,1-1,1H23c-0.552,0-1-0.448-1-1V13c0-0.552,0.448-1,1-1  c3.755,0,7.161,1.494,9.678,3.908l3.615-3.615C36.48,12.105,36.735,12,37,12h5V14z M44,22v-2h16v2H44z M49,36c-0.552,0-1-0.448-1-1  v-8c0-0.552,0.448-1,1-1h10c0.552,0,1,0.448,1,1v8c0,0.552-0.448,1-1,1H49z" fill="#e6dfc1" data-original="#e6dfc1" class=""/>
<path xmlns="http://www.w3.org/2000/svg" style="" d="M30.707,20.707l-1.414-1.414l1.972-1.972c-1.928-1.837-4.458-3.047-7.265-3.279V25h10.958  c-0.191-2.308-1.047-4.427-2.363-6.181L30.707,20.707z" fill="#e6dfc1" data-original="#e6dfc1" class=""/>
<polygon xmlns="http://www.w3.org/2000/svg" style="" points="58,32.92 58,29.08 55.6,31 " fill="#01c96c" data-original="#367ccc" class=""/>
<polygon xmlns="http://www.w3.org/2000/svg" style="" points="51.85,34 56.15,34 54,32.28 " fill="#01c96c" data-original="#367ccc" class=""/>
<polygon xmlns="http://www.w3.org/2000/svg" style="" points="56.15,28 51.85,28 54,29.72 " fill="#01c96c" data-original="#367ccc" class=""/>
<polygon xmlns="http://www.w3.org/2000/svg" style="" points="50,29.08 50,32.92 52.4,31 " fill="#01c96c" data-original="#367ccc" class=""/>
<path xmlns="http://www.w3.org/2000/svg" style="" d="M18,18.042C11.85,18.551,7,23.72,7,30c0,4.627,2.636,8.643,6.482,10.644L18,29.8V18.042z" fill="#01c96c" data-original="#367ccc" class=""/>
<circle xmlns="http://www.w3.org/2000/svg" style="" cx="23" cy="36" r="1" fill="#eb6d46" data-original="#cc5636" class=""/>
<path xmlns="http://www.w3.org/2000/svg" style="" d="M15.325,41.419C16.484,41.793,17.718,42,19,42c4.004,0,7.55-1.977,9.731-5h-2.916  c-0.414,1.161-1.514,2-2.816,2c-1.654,0-3-1.346-3-3s1.346-3,3-3c1.302,0,2.402,0.839,2.816,2h4.08c0.57-1.237,0.945-2.581,1.063-4  H19.667L15.325,41.419z" fill="#eb6d46" data-original="#cc5636" class=""/>
<path xmlns="http://www.w3.org/2000/svg" style="" d="M55,45c0-1.654-1.346-3-3-3H36c-1.654,0-3,1.346-3,3v10c0,1.654,1.346,3,3,3h16c1.654,0,3-1.346,3-3  V45z M49.109,55.994C49.073,55.998,49.036,56,49,56c-0.349,0-0.675-0.182-0.857-0.485l-4.994-8.323l-2.23,5.203  c-0.13,0.305-0.404,0.525-0.73,0.588c-0.326,0.063-0.661-0.04-0.896-0.275l-1.928-1.928l-1.437,3.592l-1.857-0.743l2-5  c0.125-0.312,0.398-0.541,0.728-0.608c0.331-0.065,0.671,0.035,0.908,0.272l1.956,1.956l2.418-5.643  c0.148-0.345,0.477-0.578,0.851-0.604c0.385-0.02,0.732,0.162,0.925,0.483l4.881,8.136l2.312-6.938l1.897,0.633l-3,9  C49.825,55.687,49.497,55.952,49.109,55.994z" fill="#eb6d46" data-original="#cc5636" class=""/>
<path xmlns="http://www.w3.org/2000/svg" style="" d="M62,5c0-1.654-1.346-3-3-3H5C3.346,2,2,3.346,2,5v3h60V5z M5,6C4.448,6,4,5.552,4,5  c0-0.552,0.448-1,1-1s1,0.448,1,1C6,5.552,5.552,6,5,6z M9,6C8.448,6,8,5.552,8,5c0-0.552,0.448-1,1-1s1,0.448,1,1  C10,5.552,9.552,6,9,6z M13,6c-0.552,0-1-0.448-1-1c0-0.552,0.448-1,1-1s1,0.448,1,1C14,5.552,13.552,6,13,6z" fill="#01c96c" data-original="#367ccc" class=""/>
<rect xmlns="http://www.w3.org/2000/svg" x="9" y="58" style="" width="3" height="4" fill="#01c96c" data-original="#367ccc" class=""/>
<rect xmlns="http://www.w3.org/2000/svg" x="19" y="53" style="" width="3" height="9" fill="#01c96c" data-original="#367ccc" class=""/>
<polygon xmlns="http://www.w3.org/2000/svg" style="" points="14,49 14,57 14,62 17,62 17,52 17,49 " fill="#01c96c" data-original="#367ccc" class=""/>
<polygon xmlns="http://www.w3.org/2000/svg" style="" points="26,51 26,52 26,53 29,53 29,52 29,51 " fill="#372862" data-original="#1f2833" class=""/>
<path xmlns="http://www.w3.org/2000/svg" style="" d="M59,0H5C2.243,0,0,2.243,0,5v43c0,2.757,2.243,5,5,5h5v-1v-1H5c-1.654,0-3-1.346-3-3V10h60v38  c0,1.654-1.346,3-3,3v1v1c2.757,0,5-2.243,5-5V5C64,2.243,61.757,0,59,0z M2,8V5c0-1.654,1.346-3,3-3h54c1.654,0,3,1.346,3,3v3H2z" fill="#372862" data-original="#1f2833" class=""/>
<circle xmlns="http://www.w3.org/2000/svg" style="" cx="5" cy="5" r="1" fill="#372862" data-original="#1f2833" class=""/>
<circle xmlns="http://www.w3.org/2000/svg" style="" cx="9" cy="5" r="1" fill="#372862" data-original="#1f2833" class=""/>
<circle xmlns="http://www.w3.org/2000/svg" style="" cx="13" cy="5" r="1" fill="#372862" data-original="#1f2833" class=""/>
<path xmlns="http://www.w3.org/2000/svg" style="" d="M36.293,12.293l-3.615,3.615C30.161,13.494,26.755,12,23,12c-0.552,0-1,0.448-1,1v13  c0,0.552,0.448,1,1,1h13c0.552,0,1-0.448,1-1c0-3.245-1.12-6.229-2.98-8.606L37.414,14H42v-2h-5  C36.735,12,36.48,12.105,36.293,12.293z M34.958,25H24V14.042c2.807,0.233,5.337,1.443,7.265,3.279l-1.972,1.972l1.414,1.414  l1.888-1.888C33.912,20.573,34.767,22.692,34.958,25z" fill="#372862" data-original="#1f2833" class=""/>
<rect xmlns="http://www.w3.org/2000/svg" x="44" y="12" style="" width="16" height="2" fill="#372862" data-original="#1f2833" class=""/>
<rect xmlns="http://www.w3.org/2000/svg" x="44" y="16" style="" width="16" height="2" fill="#372862" data-original="#1f2833" class=""/>
<rect xmlns="http://www.w3.org/2000/svg" x="44" y="20" style="" width="16" height="2" fill="#372862" data-original="#1f2833" class=""/>
<path xmlns="http://www.w3.org/2000/svg" style="" d="M52,40h-6v-4c0-0.552-0.448-1-1-1H32.061C32.659,33.445,33,31.763,33,30c0-0.552-0.448-1-1-1H20V17  c0-0.552-0.448-1-1-1c-7.72,0-14,6.28-14,14s6.28,14,14,14c5.168,0,9.681-2.823,12.106-7H44v3h-8c-2.757,0-5,2.243-5,5v7v3  c0,2.757,2.243,5,5,5h16c2.757,0,5-2.243,5-5v-3v-7C57,42.243,54.757,40,52,40z M7,30c0-6.28,4.85-11.449,11-11.958V29.8  l-4.518,10.844C9.636,38.643,7,34.627,7,30z M29.896,35h-4.08c-0.414-1.161-1.514-2-2.816-2c-1.654,0-3,1.346-3,3s1.346,3,3,3  c1.302,0,2.402-0.839,2.816-2h2.916c-2.181,3.023-5.727,5-9.731,5c-1.282,0-2.516-0.207-3.675-0.581L19.667,31h11.292  C30.841,32.419,30.466,33.763,29.896,35z M24,36c0,0.551-0.449,1-1,1s-1-0.449-1-1s0.449-1,1-1S24,35.449,24,36z M52,58H36  c-1.654,0-3-1.346-3-3V45c0-1.654,1.346-3,3-3h16c1.654,0,3,1.346,3,3v10C55,56.654,53.654,58,52,58z" fill="#372862" data-original="#1f2833" class=""/>
<path xmlns="http://www.w3.org/2000/svg" style="" d="M23,51h-4v-3c0-0.552-0.448-1-1-1h-5c-0.552,0-1,0.448-1,1v4v4H8c-0.552,0-1,0.448-1,1v5H2v2h6h5h5h5  h5v-2h-4V52C24,51.448,23.552,51,23,51z M12,62H9v-4h3V62z M22,62h-3v-9h3V62z M17,62h-3v-5v-8h3v3V62z" fill="#372862" data-original="#1f2833" class=""/>
<path xmlns="http://www.w3.org/2000/svg" style="" d="M52.949,46.316l-1.897-0.633l-2.312,6.938l-4.881-8.136c-0.193-0.321-0.54-0.503-0.925-0.483  c-0.375,0.025-0.703,0.258-0.851,0.604l-2.418,5.643l-1.956-1.956c-0.237-0.237-0.577-0.337-0.908-0.272  c-0.329,0.067-0.603,0.296-0.728,0.608l-2,5l1.857,0.743l1.437-3.592l1.928,1.928c0.235,0.235,0.57,0.338,0.896,0.275  c0.326-0.062,0.6-0.283,0.73-0.588l2.23-5.203l4.994,8.323C48.325,55.818,48.651,56,49,56c0.036,0,0.073-0.002,0.109-0.006  c0.388-0.042,0.716-0.308,0.84-0.678L52.949,46.316z" fill="#372862" data-original="#1f2833" class=""/>
<path xmlns="http://www.w3.org/2000/svg" style="" d="M60,35v-8c0-0.552-0.448-1-1-1H49c-0.552,0-1,0.448-1,1v8c0,0.552,0.448,1,1,1h10  C59.552,36,60,35.552,60,35z M56.15,28L54,29.72L51.85,28H56.15z M50,29.08L52.4,31L50,32.92V29.08z M51.85,34L54,32.28L56.15,34  H51.85z M58,32.92L55.6,31l2.4-1.92V32.92z" fill="#372862" data-original="#1f2833" class=""/>
</g></svg>
