<?xml version="1.0"?>
<svg xmlns="http://www.w3.org/2000/svg" xmlns:xlink="http://www.w3.org/1999/xlink" xmlns:svgjs="http://svgjs.com/svgjs" version="1.1" width="512" height="512" x="0" y="0" viewBox="0 0 512 512" style="enable-background:new 0 0 512 512" xml:space="preserve" class=""><g>
<path xmlns="http://www.w3.org/2000/svg" style="" d="M498.8,115.499L395.501,13.2C386.8,4.799,375.7,0,363.701,0H45C20.099,0,0,20.099,0,45v422  c0,24.899,20.099,45,45,45h422c24.901,0,45-20.101,45-45V147.299C512,135.3,507.201,124.2,498.8,115.499z" fill="#01c96c" data-original="#ff281d" class=""/>
<path xmlns="http://www.w3.org/2000/svg" style="" d="M512,147.299V467c0,24.899-20.099,45-45,45H256V0h107.701c11.999,0,23.099,4.799,31.8,13.2  L498.8,115.499C507.201,124.2,512,135.3,512,147.299z" fill="#01c96c" data-original="#b80000" class=""/>
<path xmlns="http://www.w3.org/2000/svg" style="" d="M91,0v135c0,24.899,20.099,45,45,45h180c24.901,0,45-20.101,45-45V0H91z" fill="#372862" data-original="#e1f1fa" class=""/>
<path xmlns="http://www.w3.org/2000/svg" style="" d="M421,286v15l-23.699,30h-255L91,301v-15c0-24.901,20.099-45,45-45h240  C400.901,241,421,261.099,421,286z" fill="#eb6d46" data-original="#2864f0" class=""/>
<path xmlns="http://www.w3.org/2000/svg" style="" d="M421,286v15l-23.699,30H256v-90h120C400.901,241,421,261.099,421,286z" fill="#eb6d46" data-original="#0053bf" class=""/>
<path xmlns="http://www.w3.org/2000/svg" style="" d="M316,180h-60V0h105v135C361,159.899,340.901,180,316,180z" fill="#372862" data-original="#bfe1ff" class=""/>
<path xmlns="http://www.w3.org/2000/svg" style="" d="M91,301v211h330V301H91z" fill="#372862" data-original="#e1f1fa" class=""/>
<rect xmlns="http://www.w3.org/2000/svg" x="256" y="301" style="" width="165" height="211" fill="#372862" data-original="#bfe1ff" class=""/>
<path xmlns="http://www.w3.org/2000/svg" style="" d="M211,0v105c0,8.399,6.599,15,15,15h60c8.401,0,15-6.601,15-15V0H211z" fill="#eb6d46" data-original="#0053bf" class=""/>
<path xmlns="http://www.w3.org/2000/svg" style="" d="M286,120h-30V0h45v105C301,113.399,294.401,120,286,120z" fill="#eb6d46" data-original="#05377f" class=""/>
<g xmlns="http://www.w3.org/2000/svg">
	<path style="" d="M361,376c0,8.399-6.599,15-15,15H166c-8.401,0-15-6.601-15-15c0-8.401,6.599-15,15-15h180   C354.401,361,361,367.599,361,376z" fill="#eb6d46" data-original="#0053bf" class=""/>
	<path style="" d="M331,437c0,8.399-6.599,15-15,15H196c-8.401,0-15-6.601-15-15c0-8.401,6.599-15,15-15h120   C324.401,422,331,428.599,331,437z" fill="#eb6d46" data-original="#0053bf" class=""/>
</g>
<g xmlns="http://www.w3.org/2000/svg">
	<path style="" d="M331,437c0,8.399-6.599,15-15,15h-60v-30h60C324.401,422,331,428.599,331,437z" fill="#eb6d46" data-original="#05377f" class=""/>
	<path style="" d="M361,376c0,8.399-6.599,15-15,15h-90v-30h90C354.401,361,361,367.599,361,376z" fill="#eb6d46" data-original="#05377f" class=""/>
</g>
<g xmlns="http://www.w3.org/2000/svg">
</g>
<g xmlns="http://www.w3.org/2000/svg">
</g>
<g xmlns="http://www.w3.org/2000/svg">
</g>
<g xmlns="http://www.w3.org/2000/svg">
</g>
<g xmlns="http://www.w3.org/2000/svg">
</g>
<g xmlns="http://www.w3.org/2000/svg">
</g>
<g xmlns="http://www.w3.org/2000/svg">
</g>
<g xmlns="http://www.w3.org/2000/svg">
</g>
<g xmlns="http://www.w3.org/2000/svg">
</g>
<g xmlns="http://www.w3.org/2000/svg">
</g>
<g xmlns="http://www.w3.org/2000/svg">
</g>
<g xmlns="http://www.w3.org/2000/svg">
</g>
<g xmlns="http://www.w3.org/2000/svg">
</g>
<g xmlns="http://www.w3.org/2000/svg">
</g>
<g xmlns="http://www.w3.org/2000/svg">
</g>
</g></svg>
